<svg id="Lager_1" data-name="Lager 1" xmlns="http://www.w3.org/2000/svg" viewBox="0 0 496.89 90.28"><defs><style>.cls-1{fill:#95c11f;}</style></defs><title>Artboard 2</title><path class="cls-1" d="M65.67,86.19a20.16,20.16,0,1,1,27.52-7.42A20.17,20.17,0,0,1,65.67,86.19ZM9.38,86.13A18.33,18.33,0,0,0,34.61,80.2L67.09,28.73A18.32,18.32,0,0,0,61.16,3.51h0A18.32,18.32,0,0,0,35.93,9.44L3.45,60.91A18.32,18.32,0,0,0,9.38,86.13Z"/><path d="M254,83l-13.55-20.8h.07c1,0,11.5-1.85,11.5-14.18s-10.89-14-11.5-14H223.36V83.29h4.73V62.18h7.19l13.81,21.44ZM228.09,38.21h11.1c2.52,0,7.93,2.67,7.93,9.71S241.71,58,239.19,58h-11.1ZM283.87,34h-4l-18,49.28h5l4.23-12.13h21.59l4.24,12.12h4.93ZM272.52,67l9.25-26.23v-.37a.08.08,0,0,1,.09-.09.09.09,0,0,1,.09.09v.36L291.21,67ZM148.69,34h-4l-18,49.28h5l4.23-12.13h21.59l4.24,12.12h4.94ZM137.34,67l9.25-26.23v-.37a.09.09,0,0,1,.18,0v.36L156,67Zm70.74-33V74.43S205.65,84,191.89,84s-16.15-9.57-16.15-9.57V34h4.86V72.84c1,4.19,6.18,7,11.3,7,4.55,0,10-2.67,11.33-7V34ZM363.3,34V83.3h-4.52V34Zm59.05,0h4.42V54.5H448V34h4.41V83.3H448V58.71H426.77V83.3h-4.42Zm-97.64,0h4.41v45h20.62V83.3h-25Zm152,4.18H462.16V34H496v4.18H481.46V83.3h-4.77Zm-68,20.43V80.23C395.58,84,395.11,84.09,395.39,84a19.59,19.59,0,0,1-13.58-6c-3-3.36-5.77-8.43-6-18.92h0c0-8.76,2.3-14,4.59-17.79A16,16,0,0,1,394,33.47a35.24,35.24,0,0,1,13.18,2.93c-.05.14-1.25,3.85-1.3,4l-.74-.28c-2.7-1-8-2.51-11.41-2.14a12,12,0,0,0-9.86,6.77A30.09,30.09,0,0,0,380.69,59a27.88,27.88,0,0,0,3.6,14.39,13.63,13.63,0,0,0,11.08,6.34h0c.11,0,8.77-2.42,8.77-2.42V62.8h-9.73V58.64Z"/></svg>